<svg style="height: 24px; width: 24px;" id="malibu-icon-svg-ember122" class="icon malibu-icon v-mid malibu-fill-gradient-purple o-60" data-test-icon-name="app-sleeping-28" aria-labelledby="malibu-icon-ember122" data-test-target="malibu-icon" aria-hidden="false" role="img">
    <title id="malibu-icon-ember122">App is asleep</title>
  <use xmlns:xlink="http://www.w3.org/1999/xlink" xlink:href="#app-sleeping-28">

<svg id="app-sleeping-28" viewBox="0 0 28 28"><path fill-rule="evenodd" d="M12.068 1.507a3.937 3.937 0 013.866 0l8.134 4.606A3.778 3.778 0 0126 9.395v9.21a3.78 3.78 0 01-1.932 3.283l-8.134 4.604a3.93 3.93 0 01-3.866 0l-8.135-4.604A3.778 3.778 0 012 18.606V9.395c0-1.355.736-2.604 1.933-3.282l8.135-4.606zM6.34 20h4.54v-1.073H7.87l2.84-4.09V14H6.55v1.107h2.62l-2.83 4.09V20zm5-3h4.54v-1.073h-3.01l2.84-4.09V11h-4.16v1.107h2.62l-2.83 4.09V17zm5-3h4.54v-1.073h-3.01l2.84-4.09V8h-4.16v1.107h2.62l-2.83 4.09V14z"></path></svg>

  </use>
</svg>
